<svg xmlns="http://www.w3.org/2000/svg" width="760" height="520" viewBox="0 0 760 520" role="img" aria-labelledby="title desc">
<title id="title">Probate property offer illustration</title><desc id="desc">A calm illustrated UK street, keys and documents representing a discreet probate property sale.</desc>
<defs><linearGradient id="bg" x1="0" y1="0" x2="1" y2="1"><stop offset="0" stop-color="#0b3152"/><stop offset="1" stop-color="#1c5a83"/></linearGradient><linearGradient id="gold" x1="0" y1="0" x2="1" y2="1"><stop offset="0" stop-color="#d7b56d"/><stop offset="1" stop-color="#f1d890"/></linearGradient><filter id="shadow" x="-20%" y="-20%" width="140%" height="140%"><feDropShadow dx="0" dy="18" stdDeviation="18" flood-color="#071d33" flood-opacity=".28"/></filter></defs>
<rect width="760" height="520" rx="34" fill="url(#bg)"/><circle cx="620" cy="70" r="118" fill="#ffffff" opacity=".08"/><circle cx="92" cy="438" r="154" fill="#d7b56d" opacity=".12"/>
<g opacity=".18" stroke="#fff" stroke-width="3" fill="none"><path d="M38 323h690"/><path d="M78 323V192l70-54 70 54v131"/><path d="M295 323V170l86-66 86 66v153"/><path d="M548 323V205l62-48 62 48v118"/></g>
<g filter="url(#shadow)"><rect x="86" y="104" width="328" height="286" rx="24" fill="#fff"/><rect x="112" y="137" width="196" height="17" rx="8" fill="#d7b56d"/><rect x="112" y="181" width="248" height="12" rx="6" fill="#d9e1e8"/><rect x="112" y="208" width="214" height="12" rx="6" fill="#d9e1e8"/><rect x="112" y="251" width="154" height="54" rx="12" fill="#f6f0e6"/><path d="M135 282l22 20 54-61" stroke="#0b3152" stroke-width="12" stroke-linecap="round" stroke-linejoin="round" fill="none"/><rect x="112" y="334" width="234" height="22" rx="11" fill="#0b3152" opacity=".14"/></g>
<g filter="url(#shadow)"><rect x="438" y="188" width="214" height="147" rx="24" fill="#f6f0e6"/><path d="M480 244h124" stroke="#0b3152" stroke-width="11" stroke-linecap="round" opacity=".75"/><circle cx="488" cy="292" r="25" fill="url(#gold)"/><path d="M511 292h78m0 0v18m0-18h22v15" stroke="#0b3152" stroke-width="12" stroke-linecap="round" stroke-linejoin="round" fill="none"/></g>
<g transform="translate(456 372)"><rect width="176" height="54" rx="27" fill="url(#gold)"/><text x="88" y="35" text-anchor="middle" font-family="Arial, sans-serif" font-size="18" font-weight="700" fill="#0b3152">No obligation</text></g>
</svg>